<svg width="120" height="120" viewBox="0 0 120 120" fill="none" xmlns="http://www.w3.org/2000/svg">

  <!-- Shadow -->
  <ellipse cx="60" cy="98" rx="36" ry="8" fill="#e65100" opacity="0.25"/>

  <!-- Body -->
  <circle cx="60" cy="64" r="40" fill="#ff9800"/>
  <circle cx="60" cy="64" r="40" stroke="#e65100" stroke-width="3.5"/>

  <!-- Texture dots -->
  <circle cx="44" cy="52" r="1.5" fill="#e65100" opacity="0.35"/>
  <circle cx="52" cy="44" r="1.5" fill="#e65100" opacity="0.35"/>
  <circle cx="64" cy="48" r="1.5" fill="#e65100" opacity="0.35"/>
  <circle cx="74" cy="56" r="1.5" fill="#e65100" opacity="0.35"/>
  <circle cx="50" cy="64" r="1.5" fill="#e65100" opacity="0.35"/>
  <circle cx="38" cy="68" r="1.5" fill="#e65100" opacity="0.35"/>
  <circle cx="68" cy="72" r="1.5" fill="#e65100" opacity="0.35"/>
  <circle cx="56" cy="76" r="1.5" fill="#e65100" opacity="0.35"/>
  <circle cx="80" cy="64" r="1.5" fill="#e65100" opacity="0.35"/>
  <circle cx="76" cy="80" r="1.5" fill="#e65100" opacity="0.35"/>
  <circle cx="42" cy="80" r="1.5" fill="#e65100" opacity="0.35"/>

  <!-- Stem -->
  <path d="M60 24 C60 18 64 14 66 12" stroke="#5a3e1b" stroke-width="3" stroke-linecap="round"/>

  <!-- Leaf -->
  <path d="M58 22 C62 14 76 14 74 24 C70 22 64 20 58 22Z" fill="#4caf50" stroke="#2e7d32" stroke-width="2"/>
  <path d="M58 22 C70 18 74 24 66 26" stroke="#2e7d32" stroke-width="1.5" stroke-linecap="round"/>

  <!-- Shine -->
  <ellipse cx="44" cy="50" rx="10" ry="14" fill="white" opacity="0.25" transform="rotate(-15 44 50)"/>
  <ellipse cx="40" cy="46" rx="5" ry="7" fill="white" opacity="0.45" transform="rotate(-15 40 46)"/>

</svg>