<svg viewBox="0 0 120 120" fill="none" xmlns="http://www.w3.org/2000/svg">
  <path d="M18 68 C18 44 36 24 60 24 L60 104 C36 104 18 86 18 68Z" fill="#ffc107" stroke="#f57f17" stroke-width="3"/>
  <path d="M102 68 C102 44 84 24 60 24 L60 104 C84 104 102 86 102 68Z" fill="#ffc107" stroke="#f57f17" stroke-width="3"/>

  <circle cx="38" cy="54" r="5" fill="#fff8e1" stroke="#f57f17" stroke-width="1.5"/>
  <circle cx="38" cy="72" r="5" fill="#fff8e1" stroke="#f57f17" stroke-width="1.5"/>
  <circle cx="38" cy="90" r="5" fill="#fff8e1" stroke="#f57f17" stroke-width="1.5"/>
  <circle cx="50" cy="62" r="5" fill="#fff8e1" stroke="#f57f17" stroke-width="1.5"/>
  <circle cx="50" cy="80" r="5" fill="#fff8e1" stroke="#f57f17" stroke-width="1.5"/>

  <circle cx="82" cy="54" r="5" fill="#fff8e1" stroke="#f57f17" stroke-width="1.5"/>
  <circle cx="82" cy="72" r="5" fill="#fff8e1" stroke="#f57f17" stroke-width="1.5"/>
  <circle cx="82" cy="90" r="5" fill="#fff8e1" stroke="#f57f17" stroke-width="1.5"/>
  <circle cx="70" cy="62" r="5" fill="#fff8e1" stroke="#f57f17" stroke-width="1.5"/>
  <circle cx="70" cy="80" r="5" fill="#fff8e1" stroke="#f57f17" stroke-width="1.5"/>

  <path d="M60 24 L60 104" stroke="#f57f17" stroke-width="2.5" stroke-dasharray="4 3"/>

  <circle cx="22" cy="58" r="4" fill="#ffe082" stroke="#f57f17" stroke-width="1.5"/>
  <circle cx="18" cy="74" r="3" fill="#ffe082" stroke="#f57f17" stroke-width="1.5"/>

  <path d="M52 26 C50 18 46 12 44 8" stroke="#388e3c" stroke-width="2.5" stroke-linecap="round"/>
  <path d="M60 24 C60 14 60 6 60 4" stroke="#4caf50" stroke-width="2.5" stroke-linecap="round"/>
  <path d="M68 26 C70 18 74 12 76 8" stroke="#388e3c" stroke-width="2.5" stroke-linecap="round"/>
</svg>