<svg viewBox="0 0 120 120" fill="none" xmlns="http://www.w3.org/2000/svg">
  <path d="M16 54 C14 42 22 28 60 28 L60 104 C44 96 26 74 16 54Z" fill="#f44336" stroke="#b71c1c" stroke-width="3"/>
  <path d="M104 54 C106 42 98 28 60 28 L60 104 C76 96 94 74 104 54Z" fill="#f44336" stroke="#b71c1c" stroke-width="3"/>

  <ellipse cx="36" cy="52" rx="2" ry="3" fill="#ffcdd2" transform="rotate(-20 36 52)"/>
  <ellipse cx="32" cy="68" rx="2" ry="3" fill="#ffcdd2" transform="rotate(-15 32 68)"/>
  <ellipse cx="40" cy="80" rx="2" ry="3" fill="#ffcdd2" transform="rotate(-10 40 80)"/>
  <ellipse cx="46" cy="58" rx="2" ry="3" fill="#ffcdd2" transform="rotate(-12 46 58)"/>

  <ellipse cx="84" cy="52" rx="2" ry="3" fill="#ffcdd2" transform="rotate(20 84 52)"/>
  <ellipse cx="88" cy="68" rx="2" ry="3" fill="#ffcdd2" transform="rotate(15 88 68)"/>
  <ellipse cx="80" cy="80" rx="2" ry="3" fill="#ffcdd2" transform="rotate(10 80 80)"/>
  <ellipse cx="74" cy="58" rx="2" ry="3" fill="#ffcdd2" transform="rotate(12 74 58)"/>

  <path d="M60 28 L60 104" stroke="#b71c1c" stroke-width="2.5" stroke-dasharray="4 3"/>

  <circle cx="20" cy="48" r="4" fill="#ef9a9a" stroke="#b71c1c" stroke-width="1.5"/>
  <circle cx="14" cy="62" r="3" fill="#ef9a9a" stroke="#b71c1c" stroke-width="1.5"/>
  <circle cx="100" cy="48" r="4" fill="#ef9a9a" stroke="#b71c1c" stroke-width="1.5"/>

  <path d="M52 30 C50 22 46 16 44 14" stroke="#388e3c" stroke-width="2.5" stroke-linecap="round"/>
  <path d="M60 28 C60 18 60 10 60 8" stroke="#4caf50" stroke-width="2.5" stroke-linecap="round"/>
  <path d="M68 30 C70 22 74 16 76 14" stroke="#388e3c" stroke-width="2.5" stroke-linecap="round"/>
</svg>