<svg width="120" height="120" viewBox="0 0 120 120" fill="none" xmlns="http://www.w3.org/2000/svg">

  <ellipse cx="60" cy="100" rx="36" ry="7" fill="#1b5e20" opacity="0.25"/>

  <circle cx="60" cy="64" r="40" fill="#4caf50"/>
  <circle cx="60" cy="64" r="40" stroke="#2e7d32" stroke-width="3.5"/>

  <circle cx="60" cy="64" r="36" fill="#8bc34a"/>
  <circle cx="60" cy="64" r="32" fill="#f44336"/>

  <path d="M60 24 C48 26 40 34 36 44" stroke="#81c784" stroke-width="3" stroke-linecap="round" opacity="0.6" fill="none"/>
  <path d="M60 24 C72 26 80 34 84 44" stroke="#81c784" stroke-width="3" stroke-linecap="round" opacity="0.6" fill="none"/>
  <path d="M60 104 C50 102 42 94 38 84" stroke="#81c784" stroke-width="3" stroke-linecap="round" opacity="0.6" fill="none"/>
  <path d="M60 104 C70 102 78 94 82 84" stroke="#81c784" stroke-width="3" stroke-linecap="round" opacity="0.6" fill="none"/>

  <ellipse cx="50" cy="60" rx="3.5" ry="5" fill="#1a1a1a" transform="rotate(-15 50 60)"/>
  <ellipse cx="64" cy="55" rx="3.5" ry="5" fill="#1a1a1a" transform="rotate(10 64 55)"/>
  <ellipse cx="72" cy="68" rx="3.5" ry="5" fill="#1a1a1a" transform="rotate(-5 72 68)"/>
  <ellipse cx="52" cy="76" rx="3.5" ry="5" fill="#1a1a1a" transform="rotate(20 52 76)"/>
  <ellipse cx="66" cy="78" rx="3.5" ry="5" fill="#1a1a1a" transform="rotate(-10 66 78)"/>

  <ellipse cx="44" cy="50" rx="10" ry="14" fill="white" opacity="0.25" transform="rotate(-15 44 50)"/>
  <ellipse cx="40" cy="46" rx="5" ry="7" fill="white" opacity="0.4" transform="rotate(-15 40 46)"/>

</svg>